<svg width="524" height="97" viewBox="0 0 524 97" fill="none" xmlns="http://www.w3.org/2000/svg">
<path d="M0 48.5C0 48.5 11.5 48.5 19 48.5C26.5 48.5 22.5 41.5 26.5 41.5C30.5 41.5 32 61.5 36 61.5C40 61.5 37.5 24 43.5 24C49.5 24 49 81.5 54.5 81.5C60 81.5 56.5 7.00001 64 7C71.5 6.99999 67.5 95 73.5 95C79.5 95 75 66 81.5 66C88 66 79.5 32.5 85 32.5C90.5 32.5 86.5 48.5 95 48.5C103.5 48.5 117 48.5 117 48.5" stroke="#DADADA" stroke-width="3"/>
<path d="M139.917 72.2129C136.05 72.2129 133.069 71.4878 130.975 70.0376C128.88 68.6053 127.833 66.5911 127.833 63.9951C127.833 62.151 128.414 60.5755 129.578 59.2686C130.76 57.9616 132.389 57.0933 134.466 56.6636C133.696 56.3055 133.034 55.7684 132.479 55.0522C131.941 54.3361 131.673 53.5125 131.673 52.5815C131.673 51.5073 131.968 50.5674 132.559 49.7617C133.168 48.9382 134.09 48.1504 135.325 47.3984C133.785 46.7718 132.532 45.7155 131.565 44.2295C130.617 42.7256 130.142 40.98 130.142 38.9927C130.142 36.88 130.581 35.0807 131.458 33.5947C132.335 32.0908 133.606 30.945 135.271 30.1572C136.937 29.3695 138.951 28.9756 141.314 28.9756C141.833 28.9756 142.352 29.0024 142.872 29.0562C143.409 29.092 143.919 29.1546 144.402 29.2441C144.886 29.3158 145.306 29.4053 145.665 29.5127H155.762V32.3862L150.337 33.0576C150.875 33.7559 151.322 34.5973 151.68 35.582C152.038 36.5667 152.217 37.6589 152.217 38.8584C152.217 41.7946 151.224 44.131 149.236 45.8677C147.249 47.5864 144.519 48.4458 141.045 48.4458C140.222 48.4458 139.38 48.3742 138.521 48.231C137.644 48.7144 136.972 49.2515 136.507 49.8423C136.059 50.4331 135.835 51.1134 135.835 51.8833C135.835 52.4562 136.006 52.9128 136.346 53.2529C136.704 53.5931 137.214 53.8438 137.876 54.0049C138.539 54.1481 139.336 54.2197 140.267 54.2197H145.45C148.654 54.2197 151.107 54.8911 152.808 56.2339C154.527 57.5767 155.386 59.5371 155.386 62.1152C155.386 65.3737 154.061 67.8713 151.412 69.6079C148.762 71.3446 144.931 72.2129 139.917 72.2129ZM140.052 68.7217C142.487 68.7217 144.501 68.471 146.094 67.9697C147.706 67.4863 148.905 66.7791 149.693 65.8481C150.499 64.9351 150.901 63.8429 150.901 62.5718C150.901 61.3901 150.633 60.495 150.096 59.8862C149.559 59.2954 148.771 58.9015 147.732 58.7046C146.694 58.4897 145.423 58.3823 143.919 58.3823H138.816C137.492 58.3823 136.337 58.5882 135.352 59C134.367 59.4118 133.606 60.0205 133.069 60.8262C132.55 61.6318 132.291 62.6344 132.291 63.834C132.291 65.4274 132.962 66.6359 134.305 67.4595C135.647 68.3009 137.563 68.7217 140.052 68.7217ZM141.207 45.1963C143.337 45.1963 144.939 44.6592 146.014 43.585C147.088 42.5107 147.625 40.9442 147.625 38.8853C147.625 36.6831 147.079 35.036 145.987 33.9438C144.895 32.8338 143.283 32.2788 141.153 32.2788C139.112 32.2788 137.536 32.8517 136.426 33.9976C135.334 35.1255 134.788 36.7816 134.788 38.9658C134.788 40.971 135.343 42.5107 136.453 43.585C137.563 44.6592 139.148 45.1963 141.207 45.1963ZM172.896 29.0293C175.403 29.0293 177.551 29.5843 179.341 30.6943C181.132 31.8044 182.501 33.362 183.45 35.3672C184.399 37.3545 184.874 39.682 184.874 42.3496V45.1157H164.544C164.598 48.5711 165.457 51.203 167.122 53.0112C168.787 54.8195 171.132 55.7236 174.158 55.7236C176.02 55.7236 177.667 55.5535 179.1 55.2134C180.532 54.8732 182.018 54.3719 183.558 53.7095V57.6304C182.072 58.2928 180.595 58.7762 179.126 59.0806C177.676 59.3849 175.958 59.5371 173.97 59.5371C171.141 59.5371 168.671 58.9642 166.558 57.8184C164.463 56.6546 162.834 54.9538 161.67 52.7158C160.507 50.4779 159.925 47.7386 159.925 44.498C159.925 41.3291 160.453 38.5898 161.509 36.2803C162.583 33.9528 164.087 32.1624 166.021 30.9092C167.972 29.6559 170.264 29.0293 172.896 29.0293ZM172.842 32.6816C170.461 32.6816 168.563 33.4604 167.149 35.0181C165.735 36.5757 164.893 38.751 164.625 41.5439H180.201C180.183 39.7894 179.905 38.2497 179.368 36.9248C178.849 35.582 178.052 34.5436 176.978 33.8096C175.904 33.0576 174.525 32.6816 172.842 32.6816ZM217.825 44.2295C217.825 46.6465 217.512 48.8039 216.885 50.7017C216.259 52.5994 215.354 54.2018 214.173 55.5088C212.991 56.8158 211.559 57.8184 209.876 58.5166C208.211 59.1969 206.322 59.5371 204.209 59.5371C202.24 59.5371 200.432 59.1969 198.785 58.5166C197.155 57.8184 195.741 56.8158 194.542 55.5088C193.36 54.2018 192.438 52.5994 191.775 50.7017C191.131 48.8039 190.809 46.6465 190.809 44.2295C190.809 41.0068 191.355 38.2676 192.447 36.0117C193.539 33.738 195.097 32.0103 197.12 30.8286C199.161 29.6291 201.587 29.0293 204.397 29.0293C207.083 29.0293 209.428 29.6291 211.434 30.8286C213.457 32.0282 215.023 33.7648 216.133 36.0386C217.261 38.2944 217.825 41.0247 217.825 44.2295ZM195.428 44.2295C195.428 46.5928 195.741 48.6427 196.368 50.3794C196.994 52.116 197.961 53.4588 199.268 54.4077C200.575 55.3566 202.258 55.8311 204.317 55.8311C206.358 55.8311 208.032 55.3566 209.339 54.4077C210.664 53.4588 211.639 52.116 212.266 50.3794C212.893 48.6427 213.206 46.5928 213.206 44.2295C213.206 41.8841 212.893 39.861 212.266 38.1602C211.639 36.4414 210.673 35.1165 209.366 34.1855C208.059 33.2546 206.367 32.7891 204.29 32.7891C201.229 32.7891 198.982 33.8006 197.549 35.8237C196.135 37.8468 195.428 40.6488 195.428 44.2295ZM239.363 29.0293C243.034 29.0293 245.961 30.2915 248.145 32.8159C250.329 35.3403 251.421 39.1359 251.421 44.2026C251.421 47.5506 250.92 50.3615 249.917 52.6353C248.915 54.909 247.5 56.6278 245.674 57.7915C243.866 58.9552 241.727 59.5371 239.256 59.5371C237.698 59.5371 236.329 59.3312 235.147 58.9194C233.965 58.5076 232.954 57.9526 232.112 57.2544C231.271 56.5562 230.573 55.7952 230.018 54.9717H229.695C229.749 55.6699 229.812 56.5114 229.883 57.4961C229.973 58.4808 230.018 59.3402 230.018 60.0742V72.1592H225.533V29.5664H229.212L229.803 33.917H230.018C230.59 33.0218 231.289 32.2072 232.112 31.4731C232.936 30.7212 233.938 30.1304 235.12 29.7007C236.32 29.2531 237.734 29.0293 239.363 29.0293ZM238.584 32.7891C236.543 32.7891 234.896 33.1829 233.643 33.9707C232.408 34.7585 231.504 35.9401 230.931 37.5156C230.358 39.0732 230.053 41.0337 230.018 43.397V44.2563C230.018 46.745 230.286 48.8486 230.823 50.5674C231.378 52.2861 232.282 53.5931 233.536 54.4883C234.807 55.3835 236.508 55.8311 238.638 55.8311C240.464 55.8311 241.986 55.3387 243.204 54.354C244.421 53.3693 245.325 51.9997 245.916 50.2451C246.525 48.4727 246.829 46.4406 246.829 44.1489C246.829 40.6756 246.149 37.9185 244.788 35.8774C243.445 33.8185 241.377 32.7891 238.584 32.7891ZM263.667 17.2129V29.7007C263.667 30.4168 263.65 31.1419 263.614 31.876C263.578 32.5921 263.515 33.2546 263.426 33.8633H263.721C264.33 32.8249 265.1 31.9565 266.031 31.2583C266.98 30.5422 268.054 30.005 269.253 29.647C270.453 29.271 271.724 29.083 273.067 29.083C275.43 29.083 277.4 29.459 278.975 30.2109C280.569 30.9629 281.759 32.1266 282.547 33.7021C283.353 35.2777 283.755 37.3187 283.755 39.8252V59H279.351V40.1206C279.351 37.6678 278.787 35.8327 277.659 34.6152C276.549 33.3978 274.839 32.7891 272.53 32.7891C270.346 32.7891 268.6 33.2098 267.293 34.0513C266.004 34.8748 265.073 36.0923 264.5 37.7036C263.945 39.3149 263.667 41.2843 263.667 43.6118V59H259.209V17.2129H263.667ZM288.294 29.5664H293.074L299.573 46.6465C299.949 47.6491 300.298 48.6159 300.621 49.5469C300.943 50.46 301.229 51.3372 301.48 52.1787C301.731 53.0202 301.928 53.8348 302.071 54.6226H302.259C302.509 53.7274 302.868 52.5547 303.333 51.1045C303.799 49.6364 304.3 48.1414 304.837 46.6196L310.987 29.5664H315.794L302.984 63.3237C302.304 65.132 301.507 66.7075 300.594 68.0503C299.699 69.3931 298.606 70.4225 297.317 71.1387C296.028 71.8727 294.471 72.2397 292.645 72.2397C291.803 72.2397 291.06 72.186 290.416 72.0786C289.771 71.9891 289.216 71.8817 288.75 71.7563V68.1846C289.144 68.2741 289.619 68.3547 290.174 68.4263C290.747 68.4979 291.338 68.5337 291.946 68.5337C293.056 68.5337 294.014 68.3188 294.82 67.8892C295.643 67.4774 296.351 66.8687 296.941 66.063C297.532 65.2573 298.042 64.2995 298.472 63.1895L300.083 59.0537L288.294 29.5664ZM339.534 50.9434C339.534 52.8232 339.06 54.4077 338.111 55.6968C337.18 56.9679 335.837 57.9258 334.083 58.5703C332.346 59.2148 330.269 59.5371 327.852 59.5371C325.793 59.5371 324.012 59.376 322.508 59.0537C321.004 58.7314 319.688 58.2749 318.56 57.6841V53.5752C319.76 54.166 321.192 54.7031 322.857 55.1865C324.522 55.6699 326.223 55.9116 327.959 55.9116C330.502 55.9116 332.346 55.4998 333.492 54.6763C334.638 53.8527 335.21 52.7337 335.21 51.3193C335.21 50.5137 334.978 49.8065 334.512 49.1978C334.065 48.5711 333.304 47.9714 332.229 47.3984C331.155 46.8076 329.669 46.1631 327.771 45.4648C325.892 44.7487 324.262 44.0415 322.884 43.3433C321.523 42.6271 320.467 41.7588 319.715 40.7383C318.981 39.7178 318.614 38.3929 318.614 36.7637C318.614 34.2751 319.616 32.3683 321.622 31.0435C323.645 29.7007 326.294 29.0293 329.571 29.0293C331.343 29.0293 332.999 29.2083 334.539 29.5664C336.097 29.9066 337.547 30.3721 338.89 30.9629L337.386 34.5347C336.168 34.0155 334.87 33.5768 333.492 33.2188C332.113 32.8607 330.708 32.6816 329.275 32.6816C327.216 32.6816 325.632 33.0218 324.522 33.7021C323.43 34.3825 322.884 35.3135 322.884 36.4951C322.884 37.4082 323.134 38.1602 323.636 38.751C324.155 39.3418 324.979 39.8968 326.106 40.416C327.234 40.9352 328.72 41.5439 330.564 42.2422C332.409 42.9225 334.002 43.6297 335.345 44.3638C336.688 45.0799 337.717 45.9572 338.433 46.9956C339.167 48.0161 339.534 49.332 339.534 50.9434ZM351.163 29.5664V59H346.705V29.5664H351.163ZM348.987 18.5557C349.721 18.5557 350.348 18.7974 350.867 19.2808C351.404 19.7463 351.673 20.4803 351.673 21.4829C351.673 22.4676 351.404 23.2017 350.867 23.6851C350.348 24.1685 349.721 24.4102 348.987 24.4102C348.217 24.4102 347.573 24.1685 347.054 23.6851C346.552 23.2017 346.302 22.4676 346.302 21.4829C346.302 20.4803 346.552 19.7463 347.054 19.2808C347.573 18.7974 348.217 18.5557 348.987 18.5557ZM372.405 59.5371C369.756 59.5371 367.419 58.991 365.396 57.8989C363.373 56.8068 361.797 55.1418 360.669 52.9038C359.542 50.6659 358.978 47.846 358.978 44.4443C358.978 40.8815 359.568 37.9722 360.75 35.7163C361.95 33.4425 363.597 31.7596 365.691 30.6675C367.786 29.5754 370.167 29.0293 372.835 29.0293C374.303 29.0293 375.717 29.1815 377.078 29.4858C378.457 29.7723 379.585 30.1393 380.462 30.5869L379.119 34.3198C378.224 33.9618 377.186 33.6395 376.004 33.353C374.84 33.0666 373.748 32.9233 372.728 32.9233C370.687 32.9233 368.986 33.362 367.625 34.2393C366.282 35.1165 365.271 36.4056 364.59 38.1064C363.928 39.8073 363.597 41.902 363.597 44.3906C363.597 46.7718 363.919 48.8039 364.563 50.4868C365.226 52.1698 366.202 53.4588 367.491 54.354C368.798 55.2313 370.427 55.6699 372.378 55.6699C373.936 55.6699 375.341 55.5088 376.595 55.1865C377.848 54.8464 378.985 54.4525 380.005 54.0049V57.9795C379.021 58.4808 377.92 58.8657 376.702 59.1343C375.503 59.4028 374.07 59.5371 372.405 59.5371ZM406.028 50.9434C406.028 52.8232 405.554 54.4077 404.605 55.6968C403.674 56.9679 402.331 57.9258 400.577 58.5703C398.84 59.2148 396.763 59.5371 394.346 59.5371C392.287 59.5371 390.506 59.376 389.002 59.0537C387.498 58.7314 386.182 58.2749 385.054 57.6841V53.5752C386.254 54.166 387.686 54.7031 389.351 55.1865C391.016 55.6699 392.717 55.9116 394.454 55.9116C396.996 55.9116 398.84 55.4998 399.986 54.6763C401.132 53.8527 401.705 52.7337 401.705 51.3193C401.705 50.5137 401.472 49.8065 401.006 49.1978C400.559 48.5711 399.798 47.9714 398.724 47.3984C397.649 46.8076 396.163 46.1631 394.266 45.4648C392.386 44.7487 390.757 44.0415 389.378 43.3433C388.017 42.6271 386.961 41.7588 386.209 40.7383C385.475 39.7178 385.108 38.3929 385.108 36.7637C385.108 34.2751 386.111 32.3683 388.116 31.0435C390.139 29.7007 392.789 29.0293 396.065 29.0293C397.837 29.0293 399.493 29.2083 401.033 29.5664C402.591 29.9066 404.041 30.3721 405.384 30.9629L403.88 34.5347C402.662 34.0155 401.364 33.5768 399.986 33.2188C398.607 32.8607 397.202 32.6816 395.77 32.6816C393.711 32.6816 392.126 33.0218 391.016 33.7021C389.924 34.3825 389.378 35.3135 389.378 36.4951C389.378 37.4082 389.629 38.1602 390.13 38.751C390.649 39.3418 391.473 39.8968 392.601 40.416C393.729 40.9352 395.215 41.5439 397.059 42.2422C398.903 42.9225 400.496 43.6297 401.839 44.3638C403.182 45.0799 404.211 45.9572 404.927 46.9956C405.661 48.0161 406.028 49.332 406.028 50.9434Z" fill="#DADADA"/>
<path d="M437.476 59L435.167 48.4995C435.041 47.8729 434.835 46.9508 434.549 45.7334C434.262 44.498 433.949 43.1821 433.609 41.7856C433.287 40.3713 432.982 39.0643 432.696 37.8647C432.427 36.6652 432.23 35.7879 432.105 35.2329H431.863C431.738 35.7879 431.541 36.6652 431.272 37.8647C431.004 39.0643 430.7 40.3713 430.359 41.7856C430.037 43.2 429.733 44.5339 429.446 45.7871C429.16 47.0225 428.945 47.9624 428.802 48.6069L426.385 59H417.576L409.036 28.9756H417.2L420.665 42.269C420.897 43.2 421.121 44.3101 421.336 45.5991C421.551 46.8703 421.739 48.1056 421.9 49.3052C422.079 50.4868 422.213 51.4268 422.303 52.125H422.518C422.553 51.6058 422.625 50.9165 422.732 50.0571C422.858 49.1978 422.992 48.3115 423.135 47.3984C423.296 46.4674 423.44 45.6349 423.565 44.9009C423.708 44.1489 423.816 43.6387 423.887 43.3701L427.593 28.9756H436.617L440.135 43.3701C440.26 43.8893 440.421 44.7129 440.618 45.8408C440.833 46.9688 441.021 48.1325 441.182 49.332C441.343 50.5137 441.433 51.4447 441.451 52.125H441.666C441.737 51.5163 441.862 50.6121 442.042 49.4126C442.221 48.2131 442.426 46.9598 442.659 45.6528C442.91 44.328 443.16 43.2 443.411 42.269L447.01 28.9756H455.04L446.392 59H437.476ZM468.091 28.9756V59H459.9V28.9756H468.091ZM464.009 17.2129C465.227 17.2129 466.274 17.4993 467.151 18.0723C468.029 18.6273 468.467 19.6746 468.467 21.2144C468.467 22.7362 468.029 23.7925 467.151 24.3833C466.274 24.9562 465.227 25.2427 464.009 25.2427C462.774 25.2427 461.718 24.9562 460.84 24.3833C459.981 23.7925 459.551 22.7362 459.551 21.2144C459.551 19.6746 459.981 18.6273 460.84 18.0723C461.718 17.4993 462.774 17.2129 464.009 17.2129ZM484.903 17.2129V35.9043C484.903 37.0322 484.858 38.1602 484.769 39.2881C484.679 40.416 484.581 41.5439 484.473 42.6719H484.581C485.136 41.8841 485.7 41.1053 486.272 40.3354C486.863 39.5656 487.49 38.8226 488.152 38.1064L496.558 28.9756H505.796L493.873 42.0005L506.521 59H497.068L488.421 46.8345L484.903 49.6543V59H476.712V17.2129H484.903ZM519.009 28.9756V59H510.818V28.9756H519.009ZM514.927 17.2129C516.145 17.2129 517.192 17.4993 518.069 18.0723C518.947 18.6273 519.385 19.6746 519.385 21.2144C519.385 22.7362 518.947 23.7925 518.069 24.3833C517.192 24.9562 516.145 25.2427 514.927 25.2427C513.692 25.2427 512.636 24.9562 511.758 24.3833C510.899 23.7925 510.469 22.7362 510.469 21.2144C510.469 19.6746 510.899 18.6273 511.758 18.0723C512.636 17.4993 513.692 17.2129 514.927 17.2129Z" fill="#4d77b3"/>
</svg>
